<svg xmlns="http://www.w3.org/2000/svg" viewBox="0 0 24 24" fill="currentColor">
  <path d="M12 2C6.477 2 2 6.477 2 12
           c0 4.991 3.657 9.128 8.438 9.879
           L2 12.184V12C2 6.477 6.477 2 12 2z
           m0 0c5.523 0 10 4.477 10 10
           s-4.477 10-10 10
           a9.956 9.956 0 0 1-5.406-1.587
           l3.29-1.362
           A3.5 3.5 0 1 0 13.5 13.5
           v-.043l-3.26 2.367
           A3.501 3.501 0 0 0 6.5 13.5
           a3.499 3.499 0 0 0 3.063 3.474
           l-1.85.766
           A8.001 8.001 0 0 1 4 12
           c0-4.418 3.582-8 8-8z"/>
</svg>
